<mxfile host="app.diagrams.net" modified="2023-10-10T16:46:01.514Z" agent="Mozilla/5.0 (Windows NT 10.0; Win64; x64) AppleWebKit/537.36 (KHTML, like Gecko) Chrome/117.0.0.0 Safari/537.36" etag="rVxUu8L0Qj4W5lVZ-xnV" version="22.0.4" type="github">
  <diagram name="PÃ¡gina-1" id="II4mH4hCU5NZIarofCUQ">
    <mxGraphModel dx="2083" dy="889" grid="1" gridSize="10" guides="1" tooltips="1" connect="1" arrows="1" fold="1" page="1" pageScale="1" pageWidth="1600" pageHeight="900" math="0" shadow="0">
      <root>
        <mxCell id="0" />
        <mxCell id="1" parent="0" />
      </root>
    </mxGraphModel>
  </diagram>
</mxfile>
